<svg width="1104" height="893" viewBox="0 0 1104 893" fill="none" xmlns="http://www.w3.org/2000/svg">
  <g opacity="0.4">
    <path
      d="M1 599.422C40.3257 630.665 82.376 658.91 128.422 671.353C174.378 683.705 225.056 678.437 262.021 647.194C306.16 609.867 326.867 540.298 377.092 514.595C409.606 497.975 447.569 503.424 483.625 506.24C519.772 509.055 559.188 507.602 585.89 480.81C633.753 432.765 616.678 328.684 668.537 286.361C702.777 258.479 750.368 271.194 792.872 267.924C846.638 263.746 897.135 230.415 926.652 179.555C956.169 128.695 964.07 61.3054 947.722 0.999929"
      stroke="#202020" stroke-miterlimit="10" />
    <path
      d="M5.9043 607.142C45.0483 637.931 87.0987 665.45 132.873 677.256C160.482 684.431 189.818 685.249 216.792 677.983C234.411 673.26 251.031 664.995 265.563 652.916C309.611 616.134 331.136 548.108 380.179 521.498C397.617 512.052 416.417 508.692 435.944 508.056C452.473 507.511 469.457 508.873 486.168 509.872C509.6 511.326 534.576 511.416 556.555 504.514C568.725 500.699 579.987 494.796 589.614 485.896C608.595 468.458 618.313 443.119 626.124 416.054C637.476 377.092 645.106 334.405 669.991 306.705C672.624 303.708 675.531 300.983 678.619 298.349C712.586 269.831 758.178 279.822 798.23 274.736C837.465 269.65 874.339 247.671 902.312 213.795C910.395 203.986 917.661 193.178 924.109 181.553C935.643 160.573 944.09 137.051 949.267 112.62C957.077 76.291 957.713 38.0551 950.175 2.90723"
      stroke="#272727" stroke-miterlimit="10" />
    <path
      d="M10.7178 614.953C49.771 645.196 91.7305 671.989 137.323 683.341C164.842 690.244 193.905 690.88 220.697 683.614C238.225 678.891 254.755 670.808 269.286 658.82C313.244 622.673 335.404 556.101 383.358 528.673C400.614 518.864 418.96 514.595 438.305 513.233C454.744 512.052 471.818 512.96 488.62 513.778C512.234 514.868 537.391 514.958 559.642 508.601C571.903 505.059 583.256 499.61 593.246 491.163C612.682 474.815 623.399 451.02 632.209 425.318C645.015 388.353 654.642 347.12 679.89 319.057C682.615 316.06 685.43 313.244 688.518 310.61C722.304 281.547 765.716 288.813 803.316 281.729C840.099 274.827 874.157 251.667 900.404 216.883C908.033 206.801 915.027 195.721 921.203 183.824C932.374 162.39 940.911 138.504 946.633 113.891C955.17 77.29 957.622 39.3267 952.354 5.08702"
      stroke="#2E2E2E" stroke-miterlimit="10" />
    <path
      d="M15.5312 622.673C54.4028 652.462 96.3623 678.528 141.773 689.336C169.11 695.875 197.901 696.42 224.511 689.154C241.858 684.431 258.297 676.439 272.828 664.632C316.786 629.03 339.673 563.911 386.537 535.757C403.52 525.494 421.503 520.408 440.757 518.41C457.105 516.593 474.179 517.138 491.163 517.592C514.958 518.319 540.388 518.41 562.821 512.597C575.264 509.328 586.798 504.242 596.97 496.431C616.951 481.173 628.485 459.013 638.385 434.582C652.734 399.525 664.36 359.926 689.88 331.408C692.605 328.411 695.42 325.505 698.508 322.78C732.112 293.082 773.436 297.623 808.493 288.722C842.914 280.004 873.975 255.663 898.679 219.88C905.854 209.526 912.484 198.083 918.478 186.003C929.286 164.025 937.914 139.866 944.089 115.072C953.444 78.1983 957.622 40.5075 954.625 7.26683"
      stroke="#353535" stroke-miterlimit="10" />
    <path
      d="M20.3447 630.393C59.1255 659.637 100.994 684.976 146.132 695.33C173.288 701.597 201.897 701.96 228.326 694.694C245.582 689.971 261.93 682.07 276.37 670.536C320.328 635.479 343.851 571.813 389.625 542.841C406.427 532.215 423.955 526.311 443.028 523.496C459.285 521.134 476.45 521.134 493.615 521.316C517.592 521.679 543.204 521.861 566 516.502C578.533 513.596 590.249 508.783 600.694 501.608C621.219 487.44 633.571 466.732 644.56 443.845C660.363 410.786 673.987 372.641 699.961 343.76C702.686 340.672 705.592 337.766 708.59 335.041C741.921 304.798 781.247 306.614 813.851 295.806C845.821 285.271 873.975 259.75 897.044 222.968C903.765 212.251 910.031 200.626 915.844 188.274C926.288 165.841 935.007 141.228 941.728 116.343C951.9 79.1973 957.713 41.779 957.077 9.44652"
      stroke="#3C3C3C" stroke-miterlimit="10" />
    <path
      d="M25.1582 638.203C63.8481 666.994 105.626 691.606 150.583 701.415C177.557 707.409 205.893 707.5 232.231 700.325C249.396 695.602 265.653 687.792 280.003 676.439C323.87 641.927 348.21 579.714 392.803 550.016C409.424 538.935 426.498 532.215 445.48 528.763C461.646 525.766 478.902 525.312 496.158 525.312C520.226 525.312 546.201 525.494 569.179 520.68C581.894 518.046 593.7 513.687 604.326 507.057C625.397 493.979 638.657 474.815 650.645 453.291C667.901 422.139 683.613 385.538 709.861 356.293C712.676 353.205 715.492 350.208 718.489 347.393C751.639 316.604 788.876 315.605 818.937 302.981C848.545 290.539 873.703 263.928 895.227 226.237C901.494 215.248 907.397 203.259 913.028 190.726C923.11 167.839 931.919 142.863 939.094 117.887C949.993 80.5596 957.622 43.3228 959.257 11.8985"
      stroke="#434343" stroke-miterlimit="10" />
    <path
      d="M29.9717 645.923C68.48 674.259 110.258 698.054 155.033 707.409C181.825 713.131 209.98 713.04 236.045 705.865C253.029 701.142 269.195 693.423 283.545 682.252C327.412 648.284 352.388 587.525 395.891 557.1C412.33 545.565 428.95 538.027 447.841 533.94C463.916 530.398 481.172 529.399 498.61 529.127C522.86 528.763 549.016 528.945 572.266 524.586C585.072 522.224 597.061 518.228 607.959 512.234C629.484 500.245 643.743 482.626 656.73 462.464C675.53 433.31 693.15 398.162 719.76 368.554C722.576 365.466 725.482 362.469 728.479 359.563C761.447 328.139 796.595 324.415 824.205 309.884C851.361 295.625 873.703 267.743 893.502 229.143C899.314 217.882 904.945 205.621 910.304 192.815C920.022 169.383 928.922 144.135 936.642 118.977C948.358 81.377 957.713 44.4126 961.618 13.8966"
      stroke="#494949" stroke-miterlimit="10" />
    <path
      d="M34.876 653.734C73.2934 681.525 114.98 704.594 159.483 713.494C186.094 718.853 213.976 718.671 239.951 711.496C256.844 706.773 272.919 699.144 287.178 688.246C330.954 654.914 356.656 595.426 398.979 564.274C415.236 552.286 431.402 544.021 450.111 539.117C466.096 534.939 483.443 533.577 500.972 533.032C525.402 532.305 551.832 532.578 575.263 528.672C588.251 526.584 600.421 523.042 611.501 517.501C633.571 506.603 648.647 490.618 662.725 471.727C682.978 444.481 702.595 410.877 729.66 380.906C732.475 377.727 735.382 374.73 738.379 371.824C771.165 339.855 804.224 333.316 829.291 316.968C854.085 300.802 873.43 271.829 891.685 232.231C897.044 220.606 902.311 208.164 907.488 194.995C916.843 171.109 925.743 145.406 934.008 120.158C946.451 82.2852 957.622 45.5025 963.798 15.9855"
      stroke="#505050" stroke-miterlimit="10" />
    <path
      d="M39.6895 661.453C78.0161 688.791 119.612 711.133 163.933 719.488C190.453 724.574 218.063 724.211 243.765 717.036C260.567 712.404 276.461 704.775 290.811 694.058C334.587 661.272 360.925 603.146 402.158 571.359C418.233 559.007 434.036 549.834 452.564 544.294C468.457 539.571 485.895 537.664 503.605 536.846C528.218 535.757 554.829 536.029 578.624 532.669C591.702 530.852 604.054 527.673 615.406 522.769C638.021 512.96 654.006 498.52 669.082 480.991C690.879 455.743 712.495 423.592 739.832 393.258C742.647 390.079 745.554 386.991 748.551 383.994C781.065 351.389 812.217 342.034 834.649 323.961C857.173 305.888 873.43 275.826 890.141 235.319C895.046 223.422 899.95 210.616 904.945 197.265C913.936 172.925 922.928 146.859 931.737 121.429C944.997 83.2842 957.894 46.774 966.34 18.1653"
      stroke="#575757" stroke-miterlimit="10" />
    <path
      d="M44.5039 669.173C82.6489 695.966 124.336 717.581 168.384 725.483C194.723 730.296 222.151 729.751 247.671 722.576C264.292 717.944 280.186 710.497 294.444 699.871C338.22 667.629 365.194 610.957 405.337 578.352C421.231 565.546 436.58 555.556 455.017 549.289C470.82 543.931 488.257 541.569 506.149 540.479C530.943 539.026 557.736 539.299 581.803 536.483C595.063 534.939 607.597 532.215 619.04 527.855C642.2 519.136 659.092 506.24 675.168 490.073C698.418 466.732 722.032 436.125 749.732 405.428C752.639 402.249 755.545 399.07 758.451 396.073C790.784 362.923 819.846 350.663 839.827 330.863C859.99 310.792 873.249 279.64 888.326 238.226C892.776 226.056 897.408 212.977 902.131 199.354C910.759 174.56 919.841 148.131 929.105 122.519C943.182 84.1016 957.804 47.8639 968.521 20.1633"
      stroke="#5E5E5E" stroke-miterlimit="10" />
    <path
      d="M49.3174 676.984C87.3716 703.322 128.968 724.211 172.744 731.568C198.9 736.018 226.056 735.291 251.486 728.207C268.015 723.575 283.818 716.219 297.986 705.865C341.672 674.168 369.281 618.858 408.425 585.618C424.047 572.358 439.032 561.55 457.287 554.647C472.999 548.653 490.528 545.929 508.51 544.566C533.486 542.75 560.551 543.022 584.8 540.752C598.151 539.48 610.866 537.21 622.582 533.395C646.287 525.766 663.997 514.414 681.162 499.61C705.956 478.267 731.568 449.113 759.632 418.143C762.538 414.873 765.444 411.695 768.441 408.607C800.592 374.821 827.657 359.745 845.004 338.129C862.805 316.15 873.068 283.909 886.6 241.495C890.596 228.962 894.865 215.611 899.406 201.806C907.671 176.467 916.844 149.675 926.652 123.972C941.456 85.2824 957.895 49.3171 970.882 22.5248"
      stroke="#656565" stroke-miterlimit="10" />
    <path
      d="M54.1309 684.704C92.0942 710.497 133.6 730.659 177.194 737.562C203.169 741.74 230.143 740.831 255.3 733.747C271.739 729.115 287.36 721.85 301.528 711.678C345.214 680.526 373.459 626.487 411.513 592.702C426.953 578.988 441.484 567.362 459.649 559.733C475.27 553.194 492.889 549.925 510.963 548.29C536.029 546.11 563.367 546.474 587.888 544.657C601.421 543.658 614.227 541.751 626.215 538.572C650.464 532.033 669.083 522.224 687.247 508.783C713.585 489.347 741.104 461.828 769.531 430.404C772.437 427.134 775.435 423.955 778.341 420.777C810.31 386.446 835.286 368.373 850.181 345.122C865.529 321.055 872.886 287.814 884.784 244.583C888.326 231.777 892.231 218.154 896.59 204.077C904.492 178.283 913.756 151.128 924.018 125.244C939.64 86.2814 957.804 50.5885 973.062 24.7044"
      stroke="#6C6C6C" stroke-miterlimit="10" />
    <path
      d="M58.9443 692.514C96.726 717.854 138.231 737.289 181.644 743.647C207.437 747.552 234.139 746.462 259.206 739.378C275.553 734.746 291.084 727.571 305.161 717.581C348.755 687.065 377.728 634.298 414.692 599.786C429.95 585.618 444.027 573.175 462.101 564.91C477.631 557.735 495.25 554.012 513.596 552.195C538.845 549.652 566.454 550.016 591.249 548.744C604.963 548.018 617.95 546.564 630.12 543.931C655.005 538.481 674.441 530.217 693.604 518.137C721.487 500.7 751.004 474.634 779.703 442.846C782.7 439.577 785.607 436.307 788.513 433.038C820.21 398.162 843.097 377.092 855.539 352.207C868.527 326.141 872.886 291.901 883.24 247.671C886.328 234.502 889.96 220.606 894.047 206.347C901.585 180.1 910.94 152.581 921.748 126.515C938.187 87.2804 958.076 51.86 975.605 26.8842"
      stroke="#727272" stroke-miterlimit="10" />
    <path
      d="M63.8486 700.234C101.54 725.028 142.954 743.738 186.094 749.641C211.706 753.183 238.226 752.002 263.02 744.918C279.186 740.286 294.626 733.202 308.703 723.484C352.297 693.513 381.814 642.108 417.78 606.961C432.856 592.248 446.479 579.169 464.371 570.087C479.811 562.276 497.521 558.099 515.958 556.01C541.388 553.103 569.179 553.467 594.246 552.74C608.051 552.286 621.22 551.196 633.571 549.107C659.001 544.839 679.345 538.027 699.508 527.31C728.843 511.78 760.358 487.258 789.512 455.107C792.509 451.747 795.415 448.477 798.321 445.208C829.837 409.696 850.635 385.72 860.534 359.2C871.069 331.045 872.523 295.806 881.332 250.668C883.966 237.227 887.236 223.058 891.141 208.527C898.316 181.735 907.761 153.852 919.023 127.787C936.188 88.2794 957.895 53.1315 977.694 29.1547"
      stroke="#7A7A7A" stroke-miterlimit="10" />
    <path
      d="M68.6621 707.954C106.262 732.294 147.586 750.186 190.544 755.635C216.065 758.905 242.313 757.452 266.925 750.459C283.001 745.827 298.35 738.833 312.427 729.297C355.93 699.871 386.083 649.738 421.049 614.045C435.853 598.878 449.113 584.982 466.914 575.264C482.263 566.908 500.064 562.277 518.591 559.824C544.203 556.555 572.267 557.009 597.515 556.736C611.502 556.555 624.853 555.919 637.386 554.375C663.361 551.196 684.613 545.929 705.774 536.665C736.654 523.133 770.076 500.064 799.593 467.55C802.59 464.189 805.587 460.829 808.403 457.469C839.736 421.412 858.354 394.439 865.893 366.193C873.976 336.04 872.523 299.803 879.697 253.756C881.877 240.042 884.783 225.511 888.507 210.798C895.319 183.551 904.855 155.306 916.662 129.058C934.644 89.2786 958.076 54.4032 980.146 31.3346"
      stroke="#818181" stroke-miterlimit="10" />
    <path
      d="M73.4756 715.765C110.894 739.56 152.218 756.816 194.995 761.72C220.334 764.717 246.309 763.083 270.831 755.999C286.815 751.367 302.073 744.464 316.06 735.11C359.563 706.228 390.352 657.366 424.228 621.038C438.85 605.417 451.747 590.704 469.366 580.35C484.624 571.359 502.425 566.273 521.134 563.639C546.928 560.006 575.173 560.46 600.694 560.732C614.771 560.914 628.304 560.642 641.109 559.643C667.629 557.554 689.699 553.83 711.95 545.929C744.373 534.394 779.794 512.779 809.583 479.901C812.671 476.541 815.577 473.09 818.484 469.729C849.545 433.038 866.074 403.157 871.16 373.277C876.7 341.035 872.432 303.799 878.063 256.844C879.788 242.767 882.331 228.054 885.873 212.977C892.322 185.186 901.949 156.668 914.21 130.239C933.01 90.1867 958.167 55.5837 982.598 33.4233"
      stroke="#878787" stroke-miterlimit="10" />
    <path
      d="M78.2891 723.484C115.617 746.826 156.85 763.264 199.445 767.714C224.602 770.439 250.396 768.623 274.645 761.539C290.448 756.907 305.615 750.095 319.602 741.013C363.014 712.677 394.438 665.086 427.316 628.213C441.666 612.137 454.199 596.607 471.637 585.527C486.804 575.9 504.696 570.36 523.496 567.453C549.471 563.457 577.988 563.911 603.782 564.638C618.041 565.092 631.664 565.274 644.742 564.819C671.807 563.911 694.785 561.641 718.035 555.102C752.002 545.474 789.33 525.403 819.573 492.162C822.661 488.802 825.659 485.351 828.474 481.899C859.353 444.663 873.612 411.876 876.428 380.27C879.425 346.031 872.25 307.795 876.337 259.841C877.608 245.491 879.788 230.415 883.148 215.157C889.233 186.912 898.861 157.939 911.666 131.42C931.193 91.0949 958.167 56.7644 984.868 35.5122"
      stroke="#8F8F8F" stroke-miterlimit="10" />
    <path
      d="M83.1025 731.204C120.339 754 161.481 769.803 203.804 773.709C228.78 776.07 254.301 774.163 278.459 767.079C294.172 762.538 309.248 755.817 323.144 746.826C366.556 719.125 398.525 672.715 430.404 635.206C444.572 618.586 456.651 602.329 473.998 590.613C489.074 580.35 507.057 574.447 526.039 571.177C552.104 566.818 580.895 567.272 606.961 568.543C621.31 569.27 635.206 569.542 648.375 569.996C675.985 570.814 699.871 569.451 724.12 564.275C759.541 556.646 798.957 538.027 829.473 504.423C832.561 500.972 835.558 497.521 838.374 493.979C869.071 456.106 881.15 420.413 881.514 387.173C881.968 350.935 871.977 311.609 874.52 262.838C875.247 248.216 877.154 232.867 880.333 217.337C886.055 188.637 895.773 159.302 909.123 132.6C929.467 92.0031 958.167 57.9451 987.139 37.6011"
      stroke="#959595" stroke-miterlimit="10" />
    <path
      d="M87.916 739.015C124.971 761.357 166.113 776.343 208.254 779.794C233.049 781.883 258.388 779.703 282.274 772.71C297.895 768.169 312.881 761.539 326.686 752.82C370.098 725.664 402.521 680.526 433.492 642.472C447.387 625.397 459.103 608.323 476.359 595.88C491.345 585.073 509.327 578.624 528.491 575.173C554.738 570.45 583.801 570.995 610.048 572.721C624.58 573.72 638.566 574.719 652.008 575.355C680.163 576.717 704.957 577.535 730.205 573.629C767.169 567.998 808.493 550.833 839.373 516.866C842.551 513.415 845.458 509.873 848.273 506.331C878.789 467.913 888.598 429.314 886.6 394.257C884.511 356.021 871.705 315.696 872.704 265.926C872.976 250.941 874.611 235.319 877.518 219.607C882.876 190.363 892.685 160.755 906.49 133.872C927.651 93.093 957.985 59.2167 989.319 39.7809"
      stroke="#9C9C9C" stroke-miterlimit="10" />
    <path
      d="M92.8203 746.735C129.785 768.532 170.836 782.882 212.795 785.788C237.408 787.604 262.566 785.243 286.27 778.25C301.71 773.709 316.604 767.17 330.409 758.632C373.731 732.022 406.79 688.155 436.761 649.556C450.384 631.937 461.737 614.136 478.811 601.057C493.706 589.614 511.78 582.711 531.034 578.988C557.463 573.902 586.707 574.447 613.227 576.717C627.849 577.989 642.108 579.442 655.732 580.622C684.431 583.165 710.134 585.436 736.381 582.893C774.889 579.169 818.12 563.639 849.454 529.217C852.632 525.766 855.629 522.133 858.445 518.501C888.688 479.538 896.317 438.033 892.049 401.25C887.326 361.016 871.705 319.602 871.16 268.923C870.978 253.665 872.25 237.771 874.974 221.787C879.97 192.088 889.869 162.026 904.219 135.052C926.107 94.0012 958.258 60.3973 991.862 41.8697"
      stroke="#A3A3A3" stroke-miterlimit="10" />
    <path
      d="M97.6338 754.545C134.507 775.888 175.468 789.421 217.155 791.873C241.677 793.326 266.471 790.874 290.084 783.881C305.433 779.34 320.237 772.891 334.042 764.536C377.364 738.47 410.877 695.875 439.94 656.64C453.29 638.566 464.28 619.948 481.263 606.143C496.067 594.064 514.232 586.707 533.577 582.802C560.187 577.444 589.704 577.898 616.406 580.713C631.21 582.257 645.559 584.164 659.455 585.89C688.7 589.523 715.219 593.337 742.557 592.157C782.518 590.431 827.838 576.354 859.444 541.569C862.623 538.027 865.62 534.394 868.435 530.761C898.497 491.163 903.856 446.842 897.226 408.334C889.96 366.193 871.523 323.689 869.434 272.102C868.798 256.481 869.707 240.405 872.25 224.148C876.882 193.996 886.872 163.57 901.676 136.415C924.381 95.091 958.258 61.7595 994.132 44.1402"
      stroke="#AAAAAA" stroke-miterlimit="10" />
    <path
      d="M102.447 762.265C139.139 783.154 180.1 795.869 221.605 797.867C245.945 799.048 270.558 796.414 293.899 789.421C309.157 784.88 323.779 778.522 337.584 770.439C380.815 745.009 414.964 703.595 443.028 663.815C456.106 645.196 466.732 625.852 483.625 611.411C498.338 598.696 516.502 590.976 536.12 586.708C562.912 580.986 592.611 581.531 619.675 584.8C634.661 586.617 649.101 588.978 663.179 591.249C692.968 596.062 720.396 601.421 748.733 601.511C790.238 601.875 837.465 589.16 869.434 554.012C872.704 550.47 875.61 546.837 878.426 543.022C908.306 502.879 911.394 455.652 902.493 415.418C892.685 371.279 871.432 327.685 867.709 275.19C866.619 259.296 867.164 242.858 869.525 226.419C873.794 195.721 883.875 165.024 899.224 137.686C922.746 96.0902 958.348 63.0312 996.493 46.3201"
      stroke="#B0B0B0" stroke-miterlimit="10" />
    <path
      d="M107.261 769.985C143.862 790.329 184.731 802.408 226.055 803.861C250.214 804.77 274.554 801.863 297.804 794.961C312.88 790.42 327.503 784.153 341.217 776.252C384.448 751.367 419.051 711.224 446.206 670.899C459.103 651.826 469.275 631.664 485.986 616.497C500.608 603.146 518.863 594.972 538.572 590.431C565.546 584.346 595.517 584.891 622.763 588.705C637.84 590.794 652.553 593.61 666.812 596.425C697.146 602.42 725.482 609.231 754.817 610.684C797.867 613.046 847.092 601.784 879.424 566.273C882.694 562.731 885.691 559.007 888.416 555.192C918.114 514.414 919.023 464.371 907.67 422.321C895.227 376.274 871.16 331.59 865.983 278.096C864.439 261.93 864.711 245.219 866.8 228.508C870.706 197.356 880.878 166.204 896.681 138.867C920.93 96.9983 958.348 64.2118 998.764 48.4089"
      stroke="#B8B8B8" stroke-miterlimit="10" />
    <path
      d="M112.074 777.796C148.494 797.686 189.363 808.947 230.415 809.946C254.391 810.582 278.55 807.494 301.528 800.592C316.513 796.051 331.045 789.875 344.668 782.155C387.808 757.815 422.956 718.943 449.203 677.983C461.737 658.366 471.636 637.477 488.257 621.674C502.788 607.778 521.043 599.059 540.933 594.336C567.998 587.888 598.241 588.433 625.76 592.792C641.018 595.154 655.822 598.423 670.353 601.693C701.233 608.868 730.387 617.133 760.812 619.948C805.314 624.217 856.537 614.499 889.233 578.624C892.503 574.991 895.5 571.268 898.315 567.362C927.742 526.039 926.47 473.09 912.756 429.314C897.77 381.269 870.796 335.586 864.166 281.184C862.078 264.655 862.078 247.671 863.985 230.687C867.527 199.082 877.79 167.567 894.138 140.048C919.204 97.9065 958.348 65.3925 1001.03 50.5886"
      stroke="#BEBEBE" stroke-miterlimit="10" />
    <path
      d="M116.888 785.516C153.216 804.861 193.995 815.487 234.865 815.941C258.66 816.213 282.637 813.034 305.433 806.132C320.328 801.591 334.677 795.597 348.301 788.059C391.441 764.263 427.043 726.572 452.382 685.158C464.643 665.086 474.179 643.38 490.618 626.941C505.058 612.41 523.404 603.328 543.385 598.242C570.632 591.43 601.147 592.066 628.848 596.879C644.197 599.513 659.182 603.146 673.986 607.051C705.411 615.316 735.472 625.125 766.897 629.394C812.943 635.66 866.074 627.395 899.133 591.158C902.402 587.525 905.49 583.71 908.215 579.805C937.459 537.846 933.917 482.172 917.933 436.58C900.404 386.628 870.615 339.764 862.35 284.454C859.807 267.652 859.444 250.396 861.169 233.14C864.348 200.989 874.702 169.201 891.504 141.501C917.388 99.0872 958.257 66.8456 1003.21 52.9499"
      stroke="#C5C5C5" stroke-miterlimit="10" />
    <path
      d="M121.793 793.326C158.031 812.217 198.719 822.026 239.407 822.026C263.02 822.026 286.725 818.665 309.43 811.763C324.234 807.313 338.493 801.318 352.025 793.962C395.075 770.712 431.131 734.292 455.653 692.242C467.641 671.625 476.814 649.283 493.162 632.027C507.512 616.86 525.948 607.324 546.111 601.965C573.539 594.791 604.236 595.426 632.3 600.694C647.831 603.6 662.907 607.687 677.893 612.137C709.771 621.674 740.832 632.845 773.255 638.476C820.845 646.65 875.974 639.929 909.396 603.328C912.757 599.695 915.754 595.79 918.479 591.884C947.541 549.38 941.729 490.8 923.383 443.482C903.221 391.714 870.616 343.669 860.898 287.36C857.901 270.286 857.265 252.666 858.718 235.229C861.534 202.624 871.978 170.473 889.325 142.591C915.936 99.9047 958.622 67.9355 1005.85 54.9481"
      stroke="#CCCCCC" stroke-miterlimit="10" />
    <path
      d="M126.606 801.046C183.642 830.018 252.031 836.012 313.244 817.303C374.458 798.594 427.679 755.272 458.65 699.326C470.366 678.165 479.175 655.096 495.432 637.204C529.036 600.058 586.163 594.7 635.297 604.781C684.341 614.862 730.115 637.658 779.249 647.83C828.293 658.002 885.419 652.735 919.205 615.77C958.531 572.63 951.083 504.242 928.469 450.566C905.763 396.8 870.343 347.756 858.99 290.539C849.091 240.587 859.172 186.912 886.6 143.953C914.028 100.995 958.44 69.2978 1007.94 57.2186"
      stroke="#D3D3D3" stroke-miterlimit="10" />
    <path
      d="M141.773 804.497C198.446 832.652 266.017 837.919 326.323 818.847C386.628 799.774 439.214 756.816 469.276 701.142C480.992 679.436 489.165 655.368 504.877 636.841C536.756 599.241 591.975 592.883 639.566 601.148C687.065 609.413 731.931 630.029 780.521 638.93C829.746 648.012 887.145 643.743 921.839 607.778C961.982 565.909 956.805 497.975 935.008 443.845C913.211 389.716 876.882 340.4 864.258 284.635C853.359 236.409 862.532 184.823 887.962 143.226C913.392 101.63 955.261 70.2968 1002.94 57.7635"
      stroke="#D0D0D0" stroke-miterlimit="10" />
    <path
      d="M157.031 807.858C213.25 835.104 280.094 839.736 339.582 820.391C399.07 801.046 450.929 758.269 479.992 702.868C491.708 680.526 499.156 655.641 514.323 636.478C544.385 598.514 597.788 591.067 643.743 597.515C689.79 603.873 733.747 622.4 781.792 630.12C831.199 638.022 888.961 634.934 924.563 599.877C965.614 559.37 962.526 491.708 941.728 437.306C920.93 382.904 883.693 333.225 869.707 279.004C857.718 232.595 866.074 182.915 889.506 142.681C913.029 102.448 952.264 71.4774 998.128 58.49"
      stroke="#CCCCCC" stroke-miterlimit="10" />
    <path
      d="M172.198 811.309C228.053 837.647 294.081 841.552 352.751 822.026C411.422 802.499 462.464 759.813 490.618 704.684C502.334 681.707 509.055 656.004 523.768 636.114C552.104 597.788 603.509 589.341 648.012 593.882C692.514 598.423 735.564 614.862 783.154 621.31C832.652 628.031 890.868 626.124 927.288 591.975C969.247 552.74 968.248 485.442 948.449 430.767C928.65 376.093 890.414 326.141 875.065 273.283C862.169 228.78 869.434 181.008 890.959 142.046C912.484 103.174 949.176 72.6582 993.224 59.1258"
      stroke="#C9C9C9" stroke-miterlimit="10" />
    <path
      d="M187.456 814.76C242.857 840.281 308.249 843.46 366.011 823.57C423.773 803.68 474.088 761.175 501.335 706.41C513.051 682.796 519.045 656.367 533.304 635.66C559.915 597.061 609.412 587.434 652.371 590.068C695.329 592.702 737.471 607.051 784.607 612.319C834.377 617.95 892.775 617.042 930.194 583.892C973.061 545.929 974.151 479.084 955.351 424.046C936.46 369.008 897.407 318.966 880.696 267.47C866.8 224.784 873.158 178.919 892.684 141.319C912.211 103.719 946.36 73.6572 988.592 59.5799"
      stroke="#C6C6C6" stroke-miterlimit="10" />
    <path
      d="M202.624 818.12C257.662 842.733 322.236 845.276 379.09 825.114C435.944 804.951 485.533 762.629 511.871 708.227C523.587 683.977 528.945 656.731 542.659 635.388C567.545 596.516 615.135 585.708 656.55 586.526C697.964 587.343 739.288 599.422 785.879 603.6C835.831 608.05 894.502 608.232 932.828 576.081C976.513 539.389 979.874 472.908 961.891 417.598C943.999 362.288 904.038 311.973 885.874 261.839C871.07 220.97 876.428 177.103 893.957 140.865C911.485 104.627 943.091 74.9287 983.416 60.3973"
      stroke="#C2C2C2" stroke-miterlimit="10" />
    <path
      d="M217.882 821.572C272.466 845.276 336.313 847.183 392.35 826.658C448.387 806.132 497.067 763.991 522.588 709.952C534.304 685.067 538.936 657.094 552.105 634.934C575.355 595.88 620.856 583.892 660.818 582.802C700.689 581.712 741.104 591.703 787.241 594.7C837.375 597.878 896.318 599.332 935.644 568.089C980.237 532.669 985.686 466.551 968.703 410.877C951.719 355.204 911.031 304.798 891.414 256.027C875.792 217.064 879.97 175.014 895.591 140.138C911.213 105.263 940.185 76.0185 978.693 60.9422"
      stroke="#BFBFBF" stroke-miterlimit="10" />
    <path
      d="M233.049 825.023C287.269 847.819 350.299 849.09 405.519 828.292C460.738 807.494 508.51 765.444 533.214 711.769C544.93 686.248 548.926 657.548 561.55 634.661C583.165 595.517 626.669 582.166 664.996 579.26C703.413 576.354 742.92 584.074 788.513 585.89C838.828 587.888 898.134 590.431 938.277 560.188C983.688 526.039 991.317 460.375 975.332 404.338C959.348 348.301 917.842 297.895 896.772 250.305C880.333 213.25 883.421 173.107 897.044 139.503C910.667 105.99 937.006 77.1084 973.788 61.5779"
      stroke="#BBBBBB" stroke-miterlimit="10" />
    <path
      d="M248.307 828.383C302.073 850.362 364.376 850.907 418.688 829.836C472.999 808.766 519.954 766.806 543.84 713.494C555.556 687.338 558.825 658.002 570.995 634.207C591.067 594.972 632.481 580.259 669.264 575.536C706.137 570.723 744.827 578.806 789.875 576.99C840.372 574.991 899.95 581.44 941.092 552.195C987.321 519.318 997.129 454.017 982.053 397.708C966.977 341.399 924.835 290.811 902.13 244.583C884.874 209.344 886.872 171.109 898.497 138.958C910.122 106.716 933.918 78.3799 968.884 62.3045"
      stroke="#B7B7B7" stroke-miterlimit="10" />
    <path
      d="M263.474 831.834C316.877 852.905 378.454 852.814 431.857 831.38C485.35 810.037 531.397 768.169 554.465 715.311C566.181 688.518 568.815 658.456 580.44 633.935C598.968 594.609 638.203 578.624 673.532 571.904C708.862 565.274 746.825 571.268 791.237 568.18C841.915 564.729 901.767 572.539 943.817 544.294C990.953 512.688 1002.85 447.751 988.774 391.169C974.696 334.587 931.828 283.909 907.579 238.952C889.597 205.621 890.323 169.292 900.041 138.413C909.759 107.534 930.92 79.5606 964.07 63.0311"
      stroke="#B4B4B4" stroke-miterlimit="10" />
    <path
      d="M278.732 835.286C331.772 855.448 392.532 854.721 445.117 833.015C497.703 811.309 542.841 769.622 565.183 717.127C576.808 689.699 578.897 659.001 589.887 633.571C606.87 594.246 644.016 576.808 677.802 568.271C711.587 559.734 748.642 560.823 792.6 559.37C843.642 557.645 903.584 563.73 946.633 536.392C994.587 506.058 1008.76 441.484 995.586 384.63C982.417 327.776 939.004 277.006 913.029 233.23C894.411 201.806 893.866 167.294 901.586 137.777C909.306 108.26 927.924 80.6505 959.257 63.6669"
      stroke="#B0B0B0" stroke-miterlimit="10" />
    <path
      d="M293.899 838.646C346.485 857.9 406.518 856.447 458.286 834.559C510.054 812.671 554.284 770.984 575.809 718.853C587.434 690.789 588.978 659.455 599.332 633.117C614.862 593.701 649.738 574.901 682.07 564.547C714.312 554.193 750.459 553.013 793.871 550.47C845.095 547.473 905.309 554.738 949.267 528.491C998.038 499.337 1014.39 435.308 1002.22 378.091C990.046 320.873 945.997 270.104 918.388 227.6C899.133 197.992 897.317 165.478 903.039 137.323C908.76 109.168 924.836 82.0128 954.353 64.4843"
      stroke="#ADADAD" stroke-miterlimit="10" />
    <path
      d="M309.157 842.097C361.38 860.534 420.595 858.354 471.455 836.103C522.315 813.852 565.637 772.256 586.435 720.578C597.969 691.879 598.968 659.909 608.777 632.754C622.945 593.428 655.55 573.175 686.248 560.914C716.945 548.653 752.275 545.202 795.143 541.569C846.638 537.21 907.035 545.747 951.9 520.499C1001.49 492.616 1020.02 428.951 1008.75 371.37C997.493 313.789 953.081 263.02 923.564 221.696C903.856 193.996 900.496 163.298 904.31 136.506C908.125 109.713 921.566 82.921 949.267 64.9383"
      stroke="#AAAAAA" stroke-miterlimit="10" />
    <path
      d="M324.324 845.458C376.092 862.986 434.581 860.171 484.624 837.647C534.667 815.123 576.989 773.618 596.97 722.304C608.504 692.878 608.959 660.364 618.132 632.3C630.937 592.974 661.272 571.268 690.425 557.19C719.67 543.113 754.091 537.301 796.414 532.669C848.091 527.038 908.669 536.756 954.625 512.506C1005.03 485.896 1025.74 422.593 1015.48 364.74C1005.21 306.887 960.347 256.027 929.013 215.974C908.76 190.09 904.037 161.391 905.854 135.87C907.67 110.349 918.569 84.0109 944.453 65.5741"
      stroke="#A7A7A7" stroke-miterlimit="10" />
    <path
      d="M339.582 848.909C390.987 865.529 448.749 862.078 497.884 839.282C547.018 816.486 588.433 774.98 607.687 724.211C619.13 694.149 619.221 660.999 627.577 632.118C639.02 592.792 666.993 569.633 694.694 553.648C722.394 537.664 755.998 529.581 797.776 523.95C849.726 516.957 910.486 527.946 957.349 504.696C1008.57 479.266 1031.55 416.508 1022.2 358.292C1012.84 300.075 967.703 249.124 934.462 210.343C913.846 186.276 907.579 159.483 907.398 135.416C907.216 111.257 915.572 85.3731 939.639 66.3006"
      stroke="#A3A3A3" stroke-miterlimit="10" />
    <path
      d="M354.749 852.36C405.7 868.163 462.736 863.985 511.053 840.826C559.37 817.666 599.694 776.343 618.313 725.937C629.665 695.239 629.302 661.544 637.022 631.664C647.194 592.429 672.806 567.817 698.962 549.925C725.119 532.033 757.905 521.679 799.138 515.049C851.361 506.694 912.302 518.864 960.165 496.703C1012.21 472.545 1037.36 410.151 1028.92 351.662C1020.56 293.173 975.15 242.04 939.821 204.622C918.75 182.28 911.03 157.576 908.851 134.78C906.671 111.984 912.483 86.463 934.735 66.9364"
      stroke="#A0A0A0" stroke-miterlimit="10" />
    <path
      d="M370.008 855.72C420.595 870.615 476.814 865.802 524.223 842.37C571.631 818.938 611.048 777.614 628.94 727.662C640.202 696.238 639.475 661.998 646.468 631.21C655.369 591.975 678.619 565.909 703.232 546.201C727.844 526.493 759.813 513.687 800.501 506.149C852.905 496.34 914.119 509.872 962.89 488.711C1015.75 465.733 1043.09 403.793 1035.64 345.032C1028.19 286.179 982.598 234.865 945.271 198.809C923.928 178.193 914.482 155.578 910.395 134.053C906.308 112.62 909.487 87.5529 929.831 67.4814"
      stroke="#9C9C9C" stroke-miterlimit="10" />
    <path
      d="M385.175 859.172C435.308 873.158 490.8 867.709 537.392 844.005C583.983 820.3 622.31 779.067 639.566 729.479C650.737 697.419 649.647 662.543 655.913 630.937C663.542 591.703 684.341 564.184 707.409 542.659C730.478 521.044 761.539 505.967 801.773 497.43C854.358 486.259 915.844 501.063 965.615 480.901C1019.29 459.194 1048.81 397.708 1042.36 338.492C1035.91 279.277 990.136 227.69 950.629 193.178C928.923 174.287 917.933 153.671 911.848 133.599C905.763 113.528 906.399 88.8244 924.926 68.2988"
      stroke="#999999" stroke-miterlimit="10" />
    <path
      d="M400.342 862.623C450.112 875.701 504.786 869.616 550.56 845.548C596.334 821.481 633.662 780.339 650.192 731.295C661.272 698.509 659.909 663.179 665.268 630.574C671.716 591.43 690.062 562.458 711.587 539.026C733.111 515.594 763.355 498.066 803.044 488.529C855.902 475.905 917.57 492.071 968.248 472.908C1022.74 452.383 1054.53 391.351 1048.99 331.863C1043.45 272.374 997.674 220.334 955.987 187.456C934.099 170.2 921.384 151.764 913.301 132.964C905.309 114.164 903.311 89.9143 920.022 68.9345"
      stroke="#959595" stroke-miterlimit="10" />
    <path
      d="M415.6 865.983C465.006 878.244 518.864 871.342 563.82 847.092C608.686 822.843 645.015 781.61 660.908 733.021C671.898 699.598 670.263 663.633 674.804 630.211C680.072 591.067 695.875 560.642 715.946 535.303C736.018 509.963 765.353 490.073 804.497 479.629C857.537 465.552 919.386 482.989 971.154 464.916C1026.46 445.571 1060.43 384.993 1055.8 325.233C1051.26 265.472 1005.48 212.887 961.527 181.644C939.367 165.932 924.926 149.675 914.936 132.237C904.945 114.799 900.404 91.0042 915.299 69.4795"
      stroke="#929292" stroke-miterlimit="10" />
    <path
      d="M430.767 869.435C479.81 880.787 532.941 873.249 576.989 848.727C621.037 824.115 656.276 782.973 671.534 734.837C682.342 700.688 680.616 664.178 684.249 629.848C688.427 590.704 701.687 558.825 720.214 531.67C738.742 504.514 767.169 482.172 805.768 470.819C858.99 455.198 921.111 474.089 973.788 457.014C1029.92 438.85 1066.06 378.726 1062.43 318.693C1058.8 258.66 1013.11 205.348 966.795 176.013C944.362 161.845 928.286 147.858 916.298 131.783C904.309 115.708 897.225 92.2756 910.304 70.2968"
      stroke="#8E8E8E" stroke-miterlimit="10" />
    <path
      d="M446.025 872.886C494.615 883.33 547.019 875.156 590.159 850.271C633.299 825.386 667.539 784.335 682.161 736.563C692.878 701.778 690.88 664.632 693.695 629.484C696.783 590.34 707.5 557.1 724.484 528.037C741.468 498.974 768.986 474.18 807.131 462.01C860.534 444.935 922.929 465.098 976.604 449.113C1033.55 432.129 1071.88 372.55 1069.24 312.154C1066.61 251.758 1021.02 197.628 972.336 170.291C949.63 157.576 931.92 145.86 917.934 131.147C904.038 116.434 894.32 93.3654 905.582 70.9326"
      stroke="#8B8B8B" stroke-miterlimit="10" />
    <path
      d="M461.192 876.246C509.328 885.782 561.005 876.973 603.328 851.815C645.651 826.658 678.71 785.606 692.787 738.379C703.322 702.868 701.324 665.177 703.05 629.121C705.048 589.977 713.222 555.283 728.661 524.404C744.101 493.525 770.803 466.278 808.403 453.2C861.897 434.582 924.654 456.197 979.238 441.211C1037 425.409 1077.51 366.284 1075.78 305.615C1074.06 244.856 1028.55 189.818 977.512 164.66C954.534 153.308 935.099 144.044 919.205 130.602C903.311 117.161 890.959 94.6369 900.496 71.6591"
      stroke="#878787" stroke-miterlimit="10" />
    <path
      d="M476.45 879.697C524.222 888.416 575.082 878.88 616.497 853.45C657.911 828.02 689.971 786.969 703.413 740.196C713.767 704.049 711.678 665.722 712.495 628.758C713.403 589.523 718.943 553.467 732.839 520.771C746.735 487.985 772.528 458.286 809.674 444.299C863.349 424.137 926.289 447.115 981.871 433.219C1040.45 418.597 1083.23 359.926 1082.41 298.894C1081.59 237.862 1036.18 181.644 982.871 158.757C959.62 148.767 938.55 141.864 920.658 129.876C902.766 117.796 887.871 95.636 895.591 72.2041"
      stroke="#848484" stroke-miterlimit="10" />
    <path
      d="M491.617 883.149C538.935 890.959 589.069 880.787 629.666 854.994C670.263 829.291 701.233 788.331 714.039 741.921C724.211 705.048 722.122 666.176 721.94 628.394C721.759 589.16 724.756 551.741 737.107 517.047C749.459 482.444 774.344 450.294 811.036 435.399C864.802 413.602 928.105 438.033 984.687 425.227C1044.08 411.785 1089.04 353.66 1089.22 292.264C1089.4 230.869 1044.08 173.561 988.41 153.126C964.888 144.498 942.182 140.048 922.292 129.331C902.402 118.614 884.965 96.9074 890.868 72.8398"
      stroke="#818181" stroke-miterlimit="10" />
    <path
      d="M506.875 886.509C553.83 893.411 603.237 882.604 642.925 856.538C682.614 830.472 712.495 789.602 724.756 743.647C734.746 706.138 732.657 666.539 731.476 627.94C730.296 588.615 730.568 549.834 741.467 513.324C752.365 476.813 776.251 442.211 812.489 426.498C866.346 403.157 930.012 428.951 987.502 417.235C1047.72 404.883 1094.85 347.302 1096.03 285.634C1097.21 223.967 1051.8 165.114 993.859 147.223C969.973 139.866 945.633 137.868 923.836 128.513C902.039 119.159 881.967 97.8156 886.054 73.2939"
      stroke="#7D7D7D" stroke-miterlimit="10" />
    <path
      d="M522.043 889.96C568.544 896.045 617.224 884.42 656.095 858.173C694.967 831.834 723.667 790.965 735.383 745.554C745.191 707.318 743.102 667.175 740.832 627.759C738.561 588.342 736.291 548.199 745.645 509.872C755 471.546 777.887 434.4 813.761 417.87C867.709 392.895 931.738 420.232 990.227 409.515C1051.26 398.435 1100.58 341.217 1102.66 279.277C1104.75 217.337 1059.34 156.94 999.219 141.773C974.879 135.597 949.085 136.233 925.29 128.241C901.495 120.249 878.88 99.2689 881.151 74.293"
      stroke="#7A7A7A" stroke-miterlimit="10" />
  </g>
</svg>