<?xml version="1.0" standalone="no"?>
<!DOCTYPE svg PUBLIC "-//W3C//DTD SVG 20010904//EN"
 "http://www.w3.org/TR/2001/REC-SVG-20010904/DTD/svg10.dtd">
<svg version="1.0" xmlns="http://www.w3.org/2000/svg"
 width="460.000000pt" height="460.000000pt" viewBox="0 0 460.000000 460.000000"
 preserveAspectRatio="xMidYMid meet">
<metadata>
Created by potrace 1.14, written by Peter Selinger 2001-2017
</metadata>
<g transform="translate(0.000000,460.000000) scale(0.100000,-0.100000)"
fill="#000000" stroke="none">
<path d="M1680 3713 c-95 -4 -214 -22 -304 -44 -231 -58 -387 -214 -445 -445
-44 -175 -46 -217 -46 -929 0 -700 2 -750 42 -915 9 -36 28 -93 44 -127 l28
-63 -30 0 c-22 0 -28 4 -23 13 6 9 4 9 -8 -1 -9 -7 -23 -12 -32 -10 -27 6 -17
-26 35 -102 123 -181 338 -283 664 -313 177 -16 1215 -16 1390 0 305 29 503
113 635 270 46 55 104 152 92 154 -41 5 -50 4 -46 -3 3 -4 -11 -8 -30 -8 -20
0 -36 2 -36 5 0 3 10 25 21 48 33 63 68 217 82 357 16 171 17 1218 0 1391 -15
149 -51 296 -94 382 -45 88 -164 204 -252 246 -100 46 -250 80 -412 91 -123 9
-1103 11 -1275 3z m195 -805 c44 -77 106 -186 139 -242 32 -55 70 -121 84
-146 89 -157 190 -324 199 -327 5 -2 31 34 58 79 26 46 78 135 115 198 37 63
77 133 89 155 12 22 38 67 58 100 19 33 46 78 58 100 12 22 46 82 74 133 l53
92 154 0 154 0 0 -815 0 -815 -151 0 -151 0 5 513 c3 281 8 524 12 540 11 39
-17 36 -38 -5 -27 -54 -322 -574 -371 -655 l-25 -43 -90 0 -91 0 -23 38 c-46
72 -87 143 -87 149 0 3 -22 42 -49 87 -27 44 -58 99 -70 121 -11 22 -37 67
-56 100 -20 33 -57 99 -83 147 -55 103 -77 114 -68 36 4 -29 9 -272 12 -540
l6 -488 -151 0 -151 0 0 815 0 815 153 0 152 -1 80 -141z"/>
</g>
</svg>
